<svg width="35" height="35" viewBox="0 0 35 35" fill="none" xmlns="http://www.w3.org/2000/svg">
<g clip-path="url(#clip0_569_6570)">
<path d="M26.9416 0H7.51858C3.36619 0 0 3.36618 0 7.51858V26.9416C0 31.094 3.36618 34.4602 7.51858 34.4602H26.9416C31.094 34.4602 34.4602 31.094 34.4602 26.9416V7.51858C34.4602 3.36619 31.094 0 26.9416 0Z" fill="url(#paint0_linear_569_6570)"/>
<path d="M27.1217 24.9229L23.0529 20.5427C22.9578 20.4402 22.9345 20.288 23.0012 20.1649C23.4712 19.297 23.7134 18.2983 23.7928 17.304H24.1023C24.6234 17.304 25.0455 16.8816 25.0455 16.3609V15.2435C25.0455 14.7224 24.623 14.3003 24.1023 14.3003H23.4903C23.4865 14.2878 23.4833 14.2754 23.4791 14.2629C22.9836 12.673 21.9817 11.3064 20.662 10.352C19.4071 9.44361 17.8641 8.9082 16.1966 8.9082C14.5291 8.9082 12.9867 9.44329 11.7317 10.3514C10.4018 11.3134 9.39515 12.694 8.90377 14.2999H8.19351C7.67246 14.2999 7.25 14.7224 7.25 15.2435V16.3609C7.25 16.8819 7.67246 17.3044 8.19351 17.3044H8.56459V17.4974H8.57065V25.2095C8.57065 25.3926 8.71902 25.541 8.90217 25.541H11.4002C11.5834 25.541 11.7317 25.3926 11.7317 25.2095V17.4974H13.129C13.2569 17.8844 13.6561 18.148 14.1018 18.0609C14.4263 17.9977 14.6905 17.7377 14.7579 17.4144C14.8721 16.8679 14.4579 16.3867 13.9314 16.3867C13.5572 16.3867 13.2403 16.6302 13.129 16.9668H11.7317V16.4218C11.7317 14.6244 12.8348 12.9917 14.5227 12.3743C17.6902 11.2154 20.662 13.5281 20.662 16.5348V17.6716C20.662 17.7823 20.5264 17.8356 20.4508 17.7546L19.8101 17.0156C19.7571 16.9547 19.6815 16.9189 19.6008 16.9183C19.0861 16.9141 17.2074 17.0051 16.1564 17.0383C15.8717 17.0472 15.7307 17.387 15.9244 17.5954L20.156 22.1435C20.163 22.1511 20.1576 22.1632 20.1474 22.1632H17.2339C17.1417 22.1632 17.0539 22.2015 16.9911 22.2689L14.4554 24.9944C14.2582 25.2066 14.4085 25.5518 14.6982 25.5518H18.023C18.1866 25.5518 18.3433 25.4835 18.455 25.3639L20.5609 23.1004C20.692 22.9593 20.9151 22.9593 21.0462 23.1004L23.0688 25.2746C23.2331 25.451 23.4635 25.5493 23.7047 25.5442C24.4156 25.5295 25.9632 25.4976 26.8872 25.4791C27.1728 25.4733 27.316 25.1326 27.1217 24.9236V24.9229Z" fill="black"/>
</g>
<defs>
<linearGradient id="paint0_linear_569_6570" x1="0" y1="17.2301" x2="34.4602" y2="17.2301" gradientUnits="userSpaceOnUse">
<stop offset="0.19" stop-color="#ADF808"/>
<stop offset="0.89" stop-color="#5AD43D"/>
</linearGradient>
<clipPath id="clip0_569_6570">
<rect width="34.4602" height="34.4602" rx="5.15126" fill="white"/>
</clipPath>
</defs>
</svg>
