<svg width="58" height="58" viewBox="0 0 58 58" fill="none" xmlns="http://www.w3.org/2000/svg">
<path d="M58 0H0V58H58V0Z" fill="white"/>
<path d="M45.6483 41.9486L38.8 34.5761C38.6399 34.4037 38.6007 34.1476 38.713 33.9403C39.504 32.4795 39.9116 30.7986 40.0454 29.1252H40.5663C41.4433 29.1252 42.1538 28.4142 42.1538 27.5377V25.657C42.1538 24.78 41.4427 24.0695 40.5663 24.0695H39.5363C39.5298 24.0486 39.5244 24.0276 39.5175 24.0067C38.6834 21.3306 36.9972 19.0305 34.776 17.4242C32.6638 15.8953 30.0667 14.9941 27.2601 14.9941C24.4536 14.9941 21.8575 15.8948 19.7454 17.4232C17.507 19.0423 15.8126 21.3661 14.9856 24.069H13.7902C12.9132 24.069 12.2021 24.78 12.2021 25.657V27.5377C12.2021 28.4147 12.9132 29.1257 13.7902 29.1257H14.4147V29.4506H14.4249V42.4308C14.4249 42.7391 14.6747 42.9888 14.9829 42.9888H19.1874C19.4956 42.9888 19.7454 42.7391 19.7454 42.4308V29.4506H22.0971C22.3124 30.1021 22.9842 30.5457 23.7345 30.399C24.2807 30.2927 24.7253 29.855 24.8386 29.311C25.0309 28.3911 24.3338 27.5812 23.4477 27.5812C22.8178 27.5812 22.2845 27.991 22.0971 28.5575H19.7454V27.6403C19.7454 24.6152 21.6019 21.8671 24.4428 20.828C29.774 18.8775 34.776 22.7699 34.776 27.8304V29.7439C34.776 29.9302 34.5477 30.0199 34.4204 29.8835L33.3421 28.6397C33.2529 28.5371 33.1256 28.477 32.9898 28.4759C32.1235 28.4689 28.9615 28.622 27.1925 28.6778C26.7134 28.6929 26.4761 29.2648 26.802 29.6155L33.9242 37.2704C33.936 37.2833 33.9269 37.3037 33.9097 37.3037H29.006C28.8508 37.3037 28.7031 37.3682 28.5974 37.4815L24.3295 42.0689C23.9976 42.426 24.2506 43.0071 24.7382 43.0071H30.3341C30.6096 43.0071 30.8733 42.8921 31.0613 42.6908L34.6057 38.881C34.8264 38.6436 35.2018 38.6436 35.4226 38.881L38.8268 42.5404C39.1034 42.8374 39.4911 43.0028 39.8972 42.9942C41.0937 42.9695 43.6983 42.9158 45.2536 42.8846C45.7342 42.875 45.9753 42.3014 45.6483 41.9496V41.9486Z" fill="black"/>
<path d="M45.6483 41.9486L38.8 34.5761C38.6399 34.4037 38.6007 34.1476 38.713 33.9403C39.504 32.4795 39.9116 30.7986 40.0454 29.1252H40.5663C41.4433 29.1252 42.1538 28.4142 42.1538 27.5377V25.657C42.1538 24.78 41.4427 24.0695 40.5663 24.0695H39.5363C39.5298 24.0486 39.5244 24.0276 39.5175 24.0067C38.6834 21.3306 36.9972 19.0305 34.776 17.4242C32.6638 15.8953 30.0667 14.9941 27.2601 14.9941C24.4536 14.9941 21.8575 15.8948 19.7454 17.4232C17.507 19.0423 15.8126 21.3661 14.9856 24.069H13.7902C12.9132 24.069 12.2021 24.78 12.2021 25.657V27.5377C12.2021 28.4147 12.9132 29.1257 13.7902 29.1257H14.4147V29.4506H14.4249V42.4308C14.4249 42.7391 14.6747 42.9888 14.9829 42.9888H19.1874C19.4956 42.9888 19.7454 42.7391 19.7454 42.4308V29.4506H22.0971C22.3124 30.1021 22.9842 30.5457 23.7345 30.399C24.2807 30.2927 24.7253 29.855 24.8386 29.311C25.0309 28.3911 24.3338 27.5812 23.4477 27.5812C22.8178 27.5812 22.2845 27.991 22.0971 28.5575H19.7454V27.6403C19.7454 24.6152 21.6019 21.8671 24.4428 20.828C29.774 18.8775 34.776 22.7699 34.776 27.8304V29.7439C34.776 29.9302 34.5477 30.0199 34.4204 29.8835L33.3421 28.6397C33.2529 28.5371 33.1256 28.477 32.9898 28.4759C32.1235 28.4689 28.9615 28.622 27.1925 28.6778C26.7134 28.6929 26.4761 29.2648 26.802 29.6155L33.9242 37.2704C33.936 37.2833 33.9269 37.3037 33.9097 37.3037H29.006C28.8508 37.3037 28.7031 37.3682 28.5974 37.4815L24.3295 42.0689C23.9976 42.426 24.2506 43.0071 24.7382 43.0071H30.3341C30.6096 43.0071 30.8733 42.8921 31.0613 42.6908L34.6057 38.881C34.8264 38.6436 35.2018 38.6436 35.4226 38.881L38.8268 42.5404C39.1034 42.8374 39.4911 43.0028 39.8972 42.9942C41.0937 42.9695 43.6983 42.9158 45.2536 42.8846C45.7342 42.875 45.9753 42.3014 45.6483 41.9496V41.9486Z" fill="url(#paint0_linear_494_39461)"/>
<defs>
<linearGradient id="paint0_linear_494_39461" x1="12.2021" y1="29.0006" x2="45.7985" y2="29.0006" gradientUnits="userSpaceOnUse">
<stop offset="0.19" stop-color="#ADF808"/>
<stop offset="0.89" stop-color="#5AD43D"/>
</linearGradient>
</defs>
</svg>
